# xmcd CD database file
#
# Track frame offsets:
#	150
#	12982
#	28921
#	42097
#	52909
#	67432
#	79439
#	92939
#	105871
#	119372
#	133449
#	146864
#	161018
#	172451
#	186134
#	201022
#	215652
#	230677
#	242577
#	256257
#
# Disc length: 3617 seconds
#
# Revision: 5
# Processed by: cddbd v1.5.2PL0 Copyright (c) Steve Scherf et al.
# Submitted via: CDex 1.77
#
DISCID=350e1f14
DTITLE=The Supremes - Gold [CD2]
DYEAR=2005
DGENRE=R&B
TTITLE0=Reflections
TTITLE1=Someday We'll Be Together
TTITLE2=Love Child
TTITLE3=Some Things You Never Get Used To
TTITLE4=Forever Came Today
TTITLE5=In And Out Of Love
TTITLE6=I'm Livin' In Shame
TTITLE7=No Matter What Sign You Are
TTITLE8=The Composer
TTITLE9=I'm Gonna Make You Love Me (Featuring The Temptations)
TTITLE10=Stoned Love
TTITLE11=I'm Gonna Let My Heart Do The Walking
TTITLE12=Floy Joy
TTITLE13=Nathan Jones
TTITLE14=The Sha La Bandit
TTITLE15=Up The Ladder To The Roof
TTITLE16=You're My Driving Wheel
TTITLE17=Everybody's Got The Right Love
TTITLE18=Bad Weather
TTITLE19=Love Train
EXTD=YEAR: 2005
EXTT0=
EXTT1=
EXTT2=
EXTT3=
EXTT4=
EXTT5=
EXTT6=
EXTT7=
EXTT8=
EXTT9=
EXTT10=
EXTT11=
EXTT12=
EXTT13=
EXTT14=
EXTT15=
EXTT16=
EXTT17=
EXTT18=
EXTT19=
PLAYORDER=
